<svg width="193" height="194" xmlns="http://www.w3.org/2000/svg" xmlns:xlink="http://www.w3.org/1999/xlink" xml:space="preserve" overflow="hidden"><g transform="translate(-144 -263)"><path d="M60.0712 54.7034 52.2005 77.2 140.8 77.2 132.929 54.7034C131.572 50.8434 127.923 48.25 123.822 48.25L69.1784 48.25C65.0772 48.25 61.4283 50.8434 60.0712 54.7034ZM31.2419 78.6475 41.8569 48.3405C45.928 36.7303 56.8747 28.95 69.1784 28.95L123.822 28.95C136.125 28.95 147.072 36.7303 151.143 48.3405L161.758 78.6475C168.754 81.5425 173.7 88.4483 173.7 96.5L173.7 154.4C173.7 159.738 169.388 164.05 164.05 164.05L154.4 164.05C149.062 164.05 144.75 159.738 144.75 154.4L144.75 144.75 48.25 144.75 48.25 154.4C48.25 159.738 43.9377 164.05 38.6 164.05L28.95 164.05C23.6123 164.05 19.3 159.738 19.3 154.4L19.3 96.5C19.3 88.4483 24.2456 81.5425 31.2419 78.6475ZM57.9 110.975C57.9 105.637 53.5877 101.325 48.25 101.325 42.9123 101.325 38.6 105.637 38.6 110.975 38.6 116.313 42.9123 120.625 48.25 120.625 53.5877 120.625 57.9 116.313 57.9 110.975ZM144.75 120.625C150.088 120.625 154.4 116.313 154.4 110.975 154.4 105.637 150.088 101.325 144.75 101.325 139.412 101.325 135.1 105.637 135.1 110.975 135.1 116.313 139.412 120.625 144.75 120.625Z" fill="#FC5555" transform="matrix(1 0 0 1.00518 144 263)"/></g></svg>