<svg width="194" height="194" xmlns="http://www.w3.org/2000/svg" xmlns:xlink="http://www.w3.org/1999/xlink" xml:space="preserve" overflow="hidden"><g transform="translate(-543 -263)"><path d="M606.141 282.4 674.041 282.4C682.074 282.4 688.621 289.008 688.318 297.011 688.258 298.617 688.197 300.224 688.106 301.8L703.141 301.8C711.052 301.8 718.024 308.348 717.418 316.896 715.145 348.33 699.079 365.608 681.649 374.641 676.86 377.127 671.98 378.976 667.342 380.34 661.219 389.009 654.853 393.586 649.791 396.042L649.791 418.2 669.191 418.2C674.556 418.2 678.891 422.535 678.891 427.9 678.891 433.265 674.556 437.6 669.191 437.6L610.991 437.6C605.626 437.6 601.291 433.265 601.291 427.9 601.291 422.535 605.626 418.2 610.991 418.2L630.391 418.2 630.391 396.042C625.541 393.708 619.509 389.373 613.628 381.401 608.051 379.946 601.988 377.733 596.077 374.398 579.678 365.214 564.886 347.905 562.764 316.835 562.188 308.317 569.129 301.77 577.041 301.77L592.076 301.77C591.985 300.193 591.924 298.617 591.864 296.98 591.561 288.948 598.108 282.37 606.141 282.37ZM593.167 316.35 577.283 316.35C579.163 342.025 590.954 354.877 603.11 361.698 598.745 350.391 595.138 335.629 593.167 316.35ZM677.588 360.242C689.864 353.028 700.958 340.206 702.838 316.35L686.984 316.35C685.105 334.81 681.71 349.148 677.588 360.242Z" fill="#FFC000"/></g></svg>