<svg width="193" height="194" xmlns="http://www.w3.org/2000/svg" xmlns:xlink="http://www.w3.org/1999/xlink" xml:space="preserve" overflow="hidden"><g transform="translate(-144 -263)"><path d="M19.3302 38.6C19.3302 27.9548 27.985 19.3 38.6302 19.3L83.7137 19.3C88.8403 19.3 93.7558 21.3205 97.3745 24.9392L129.461 57.0858C133.08 60.7045 135.1 65.62 135.1 70.7466L135.1 100.149 95.2937 139.955 82.598 139.955 77.7428 123.791C76.3255 119.057 71.983 115.83 67.0373 115.83 63.6297 115.83 60.4331 117.368 58.3222 120.022L40.1983 142.639C37.6953 145.745 38.208 150.329 41.3141 152.802 44.4202 155.275 49.0039 154.792 51.4767 151.656L65.6803 133.924 70.2641 149.213C71.1687 152.289 74.0034 154.37 77.2 154.37L86.6992 154.37C86.4278 155.305 86.1866 156.27 86.0056 157.235L82.7186 173.67 38.6302 173.67C27.985 173.67 19.3302 165.015 19.3302 154.37L19.3302 38.5698ZM82.0552 36.9414 82.0552 65.1375C82.0552 69.1483 85.2819 72.375 89.2927 72.375L117.489 72.375 82.0552 36.9414ZM100.209 160.1C100.963 156.36 102.803 152.922 105.487 150.238L141.342 114.383 165.467 138.508 129.612 174.363C126.928 177.047 123.49 178.887 119.75 179.641L101.777 183.229C101.506 183.29 101.204 183.32 100.903 183.32 98.4903 183.32 96.5 181.36 96.5 178.917 96.5 178.615 96.5302 178.344 96.5905 178.042L100.179 160.069ZM180.968 123.007 172.283 131.692 148.158 107.567 156.843 98.8823C163.507 92.2178 174.303 92.2178 180.968 98.8823 187.632 105.547 187.632 116.343 180.968 123.007Z" fill="#FC5555" transform="matrix(1 0 0 1.00518 144 263)"/></g></svg>