<svg width="193" height="194" xmlns="http://www.w3.org/2000/svg" xmlns:xlink="http://www.w3.org/1999/xlink" xml:space="preserve" overflow="hidden"><g transform="translate(-912 -263)"><path d="M159.225 96.5C159.225 61.8505 131.15 33.775 96.5 33.775 61.8505 33.775 33.775 61.8505 33.775 96.5 33.775 131.15 61.8505 159.225 96.5 159.225 131.15 159.225 159.225 131.15 159.225 96.5ZM19.3 96.5C19.3 53.8591 53.8591 19.3 96.5 19.3 139.141 19.3 173.7 53.8591 173.7 96.5 173.7 139.141 139.141 173.7 96.5 173.7 53.8591 173.7 19.3 139.141 19.3 96.5ZM72.767 115.619C77.2905 120.323 85.1612 125.45 96.5 125.45 107.839 125.45 115.71 120.323 120.233 115.619 123.007 112.724 127.591 112.634 130.456 115.408 133.321 118.182 133.441 122.766 130.667 125.631 124.003 132.567 112.573 139.925 96.5 139.925 80.4267 139.925 68.9975 132.567 62.333 125.631 59.5586 122.736 59.6491 118.152 62.5441 115.408 65.4391 112.664 70.0228 112.724 72.767 115.619ZM72.375 73.5812C67.7008 73.5812 63.9312 77.3508 63.9312 82.025L63.9312 84.4375C63.9312 87.7547 61.2172 90.4688 57.9 90.4688 54.5828 90.4688 51.8687 87.7547 51.8687 84.4375L51.8687 82.025C51.8687 70.6862 61.0362 61.5187 72.375 61.5187 83.7137 61.5187 92.8812 70.6862 92.8812 82.025L92.8812 84.4375C92.8812 87.7547 90.1672 90.4688 86.85 90.4688 83.5328 90.4688 80.8187 87.7547 80.8187 84.4375L80.8187 82.025C80.8187 77.3508 77.0492 73.5812 72.375 73.5812ZM112.181 82.025 112.181 84.4375C112.181 87.7547 109.467 90.4688 106.15 90.4688 102.833 90.4688 100.119 87.7547 100.119 84.4375L100.119 82.025C100.119 70.6862 109.286 61.5187 120.625 61.5187 131.964 61.5187 141.131 70.6862 141.131 82.025L141.131 84.4375C141.131 87.7547 138.417 90.4688 135.1 90.4688 131.783 90.4688 129.069 87.7547 129.069 84.4375L129.069 82.025C129.069 77.3508 125.299 73.5812 120.625 73.5812 115.951 73.5812 112.181 77.3508 112.181 82.025Z" fill="#84E291" transform="matrix(1 0 0 1.00518 912 263)"/></g></svg>