<svg width="193" height="194" xmlns="http://www.w3.org/2000/svg" xmlns:xlink="http://www.w3.org/1999/xlink" xml:space="preserve" overflow="hidden"><g transform="translate(-543 -263)"><path d="M118.454 19.6619C113.327 18.1842 107.99 21.1697 106.512 26.2962L67.9119 161.396C66.4342 166.523 69.4197 171.86 74.5462 173.338 79.6728 174.816 85.0105 171.83 86.4881 166.704L125.088 31.6038C126.566 26.4772 123.58 21.1395 118.454 19.6619ZM137.935 60.7045C134.165 64.4741 134.165 70.5958 137.935 74.3653L160.069 96.5 137.935 118.635C134.165 122.404 134.165 128.526 137.935 132.295 141.704 136.065 147.826 136.065 151.595 132.295L180.545 103.345C184.315 99.5759 184.315 93.4542 180.545 89.6847L151.595 60.7347C147.826 56.9652 141.704 56.9652 137.935 60.7347ZM55.0955 60.7045C51.3259 56.935 45.2042 56.935 41.4347 60.7045L12.4847 89.6545C8.71516 93.4241 8.71516 99.5458 12.4847 103.315L41.4347 132.265C45.2042 136.035 51.3259 136.035 55.0955 132.265 58.865 128.496 58.865 122.374 55.0955 118.605L32.9608 96.5 55.0653 74.3653C58.8348 70.5958 58.8348 64.4741 55.0653 60.7045Z" fill="#FFC000" transform="matrix(1 0 0 1.00518 543 263)"/></g></svg>