<svg width="193" height="194" xmlns="http://www.w3.org/2000/svg" xmlns:xlink="http://www.w3.org/1999/xlink" xml:space="preserve" overflow="hidden"><g transform="translate(-912 -263)"><path d="M24.125 78.3459 87.2119 104.31C90.1672 105.517 93.3034 106.15 96.5 106.15 99.6966 106.15 102.833 105.517 105.788 104.31L178.887 74.2145C181.601 73.0987 183.35 70.4752 183.35 67.55 183.35 64.6248 181.601 62.0013 178.887 60.8855L105.788 30.7895C102.833 29.5833 99.6966 28.95 96.5 28.95 93.3034 28.95 90.1672 29.5833 87.2119 30.7895L14.1131 60.8855C11.3991 62.0013 9.65 64.6248 9.65 67.55L9.65 156.812C9.65 160.823 12.8767 164.05 16.8875 164.05 20.8983 164.05 24.125 160.823 24.125 156.812L24.125 78.3459ZM38.6 99.968 38.6 135.1C38.6 151.083 64.5344 164.05 96.5 164.05 128.466 164.05 154.4 151.083 154.4 135.1L154.4 99.9378 111.307 117.7C106.602 119.63 101.596 120.625 96.5 120.625 91.4036 120.625 86.3977 119.63 81.6933 117.7L38.6 99.9378Z" fill="#84E291" transform="matrix(1 0 0 1.00518 912 263)"/></g></svg>